<?xml version="1.0" encoding="UTF-8"?>
<svg version="1.1" xmlns="http://www.w3.org/2000/svg" width="1024" height="1024">
<path d="M0 0 C337.92 0 675.84 0 1024 0 C1024 337.92 1024 675.84 1024 1024 C686.08 1024 348.16 1024 0 1024 C0 686.08 0 348.16 0 0 Z " fill="#E01B18" transform="translate(0,0)"/>
<path d="M0 0 C337.92 0 675.84 0 1024 0 C1024 337.92 1024 675.84 1024 1024 C686.08 1024 348.16 1024 0 1024 C0 686.08 0 348.16 0 0 Z M186 106 C185.31776367 106.29100586 184.63552734 106.58201172 183.93261719 106.88183594 C144.34135616 124.05197897 116.51938117 154.39220789 100 194 C86.0379648 230.08411859 86.69545332 267.99997196 86.73855066 306.05822682 C86.74311689 312.03374632 86.73607096 318.00925455 86.73059082 323.98477173 C86.72224933 334.98732418 86.72291834 345.98985601 86.72841376 356.99240923 C86.73346636 367.15959308 86.73474832 377.32676886 86.73236847 387.4939537 C86.7322157 388.17119383 86.73206293 388.84843395 86.73190553 389.54619649 C86.73128275 392.29605572 86.73064593 395.04591495 86.729986 397.79577417 C86.72388327 423.53269239 86.72939086 449.26959659 86.7401798 475.00651265 C86.74967146 497.82222037 86.74881817 520.63790575 86.73925781 543.45361328 C86.72852621 569.1497214 86.72431412 594.84581716 86.73048234 620.54192722 C86.73112368 623.28584408 86.73174936 626.02976095 86.73236847 628.77367783 C86.73252662 629.44918855 86.73268478 630.12469927 86.73284773 630.82068001 C86.73511326 640.97749375 86.73247983 651.1342985 86.72740936 661.29111099 C86.72166751 672.84969123 86.72336076 684.40824642 86.73397085 695.96682371 C86.73919926 701.85515595 86.74133298 707.74344307 86.73467255 713.6317749 C86.72865195 719.03646842 86.73208739 724.44107557 86.74262765 729.8457614 C86.74483604 731.78620237 86.74378417 733.72665084 86.73887607 735.66708685 C86.67130449 764.63580488 90.04385662 792.41010276 99 820 C99.24621094 820.76328613 99.49242188 821.52657227 99.74609375 822.31298828 C107.69977922 846.43804415 121.36926173 866.02618255 139 884 C139.58692627 884.60303955 140.17385254 885.2060791 140.77856445 885.82739258 C176.0711906 921.6996157 231.80266602 931.64993693 280.16775199 932.11579309 C284.50107276 932.13848332 288.83422162 932.13767229 293.16758728 932.13371277 C295.13965939 932.1355857 297.11173112 932.13788831 299.08380228 932.14057809 C304.45236554 932.14664295 309.8209131 932.14656883 315.18947899 932.14538372 C320.9995517 932.14517835 326.80961954 932.15071136 332.61968994 932.15544128 C343.98424078 932.16371931 355.34878643 932.16649484 366.71334004 932.16705366 C375.95943795 932.1675302 385.20553417 932.16959182 394.45163155 932.17275429 C397.12184749 932.17364888 399.79206343 932.17454177 402.46227938 932.17542917 C403.12627704 932.17565021 403.79027469 932.17587126 404.47439349 932.17609901 C423.12991897 932.18224587 441.78544388 932.18620032 460.44097042 932.18575573 C461.1430913 932.18574015 461.84521218 932.18572457 462.56860945 932.18570852 C466.12650668 932.18562543 469.68440392 932.18552639 473.24230116 932.18542381 C473.94879481 932.18540387 474.65528847 932.18538392 475.38319102 932.18536337 C476.81189167 932.18532294 478.24059231 932.18528114 479.66929295 932.18523798 C501.87987699 932.18462572 524.09044573 932.19212587 546.30102539 932.20581055 C571.30898231 932.22121278 596.31692919 932.22977428 621.32489115 932.22884732 C634.54547215 932.22847827 647.76603878 932.23121564 660.98661613 932.24202538 C672.24509519 932.25117243 683.50354918 932.25327134 694.76203036 932.24651595 C700.49499725 932.24327178 706.22791617 932.24311709 711.96087837 932.2518692 C745.52864337 932.31661151 745.52864337 932.31661151 779 930 C780.00070994 929.89517787 781.00141989 929.79035575 782.03245437 929.68235719 C821.88172097 925.40530898 856.37426248 909.62476752 886 883 C886.67546875 882.39800781 887.3509375 881.79601562 888.046875 881.17578125 C910.96238328 859.51516985 923.36644387 829.51223509 930.75 799.5 C930.93651123 798.75588867 931.12302246 798.01177734 931.31518555 797.24511719 C935.25563973 780.30947292 936.44354502 763.41552793 936.38095093 746.08476257 C936.38441718 743.95946842 936.38918818 741.83417607 936.39513266 739.7088874 C936.40753969 733.93080794 936.40151967 728.15287904 936.39217401 722.37479937 C936.38534108 716.11901737 936.39588571 709.86325991 936.40411377 703.60748291 C936.41664261 692.0811115 936.41561377 680.55480642 936.40737936 669.02843543 C936.39980686 658.37507486 936.39787456 647.72173162 936.4014473 637.06836891 C936.40167645 636.35932685 936.40190561 635.65028478 936.40214171 634.91975659 C936.40307586 632.04086609 936.40403107 629.16197561 936.405021 626.28308513 C936.41418126 599.32105971 936.40590478 572.35906438 936.38973031 545.39704362 C936.3755 521.49425318 936.37676543 497.59151072 936.39111328 473.6887207 C936.40721313 446.77781258 936.41352678 419.86693102 936.40427649 392.95601875 C936.40331448 390.0817053 936.40237595 387.20739184 936.4014473 384.33307838 C936.40121006 383.62545055 936.40097283 382.91782271 936.40072841 382.1887516 C936.39733034 371.54967744 936.40128 360.91062261 936.40888596 350.27155113 C936.41750194 338.15994828 936.41495286 326.04841426 936.39904372 313.93681344 C936.39120401 307.7667248 936.38799531 301.59673302 936.39799118 295.42664528 C936.40702878 289.76201549 936.40185838 284.09757096 936.38605852 278.43295763 C936.38274859 276.40019919 936.38431753 274.3674246 936.39168589 272.33467682 C936.45438753 253.57557907 934.95741533 234.68399294 930.375 216.4375 C930.12411621 215.42067139 929.87323242 214.40384277 929.61474609 213.35620117 C925.38462745 197.00773966 919.19082568 181.20239345 910 167 C909.64437988 166.44666992 909.28875977 165.89333984 908.92236328 165.32324219 C904.49457899 158.49292064 899.66408644 152.20225275 894.09765625 146.25390625 C892.2476809 144.26613013 890.53235492 142.2241713 888.8125 140.125 C859.46966907 106.82959595 813.17722657 93.73585651 770.44932556 90.33576965 C769.67336176 90.27283589 768.89739797 90.20990213 768.09792011 90.14506129 C747.15225289 88.4929046 726.1910693 88.57809134 705.19380701 88.62248504 C699.3378064 88.63148712 693.48182459 88.62283867 687.62582397 88.61662292 C676.21272725 88.60722692 664.7996946 88.61365153 653.38660271 88.62588587 C644.10515846 88.63545843 634.82372899 88.63876265 625.5422802 88.63749123 C624.54647612 88.63736518 624.54647612 88.63736518 623.53055479 88.63723659 C620.83460521 88.63688425 618.13865563 88.63650021 615.44270605 88.63607101 C590.26509022 88.63212487 565.08750798 88.64473752 539.90990175 88.66559757 C517.60227957 88.68399286 495.2946895 88.68976999 472.98706055 88.68432617 C471.55215224 88.68397973 470.11724393 88.68363364 468.68233562 88.68328788 C467.97289657 88.68311689 467.26345752 88.68294589 466.53252031 88.68276971 C462.9603402 88.681916 459.38816008 88.68109223 455.81597996 88.68030071 C455.11103987 88.68014363 454.40609979 88.67998655 453.67979789 88.67982471 C434.95588423 88.67582682 416.23197362 88.68132006 397.50806183 88.689812 C395.49162011 88.69071892 393.4751784 88.69162456 391.45873668 88.69252724 C390.12148266 88.69312833 388.78422865 88.69373695 387.44697465 88.69435314 C377.51290685 88.69885253 367.5788457 88.6988875 357.6447773 88.6968441 C346.3481827 88.69471429 335.05161882 88.70000633 323.75503284 88.71445765 C318.00230466 88.72166041 312.24962102 88.72581403 306.49688911 88.72121429 C301.21668893 88.71709521 295.93658017 88.72242251 290.65639376 88.73484037 C288.76142983 88.73773363 286.86645708 88.73738721 284.97149558 88.73319729 C251.38109568 88.66575129 217.11233755 92.69755179 186 106 Z " fill="#EEEEEE" transform="translate(0,0)"/>
<path d="M0 0 C0.04688602 23.12366118 0.08206974 46.24731444 0.10362434 69.37101364 C0.11390207 80.10966336 0.12789475 90.8482834 0.15087891 101.58691406 C0.17092076 110.95537565 0.18374184 120.32381574 0.18817699 129.69229817 C0.19076623 134.64493682 0.1967775 139.59751397 0.21146011 144.55013275 C0.22521537 149.22863984 0.22918713 153.90706116 0.22621536 158.58558655 C0.22675762 160.28650125 0.23062673 161.98741937 0.23841095 163.68831635 C0.42039704 205.57107824 -7.80901439 248.62860207 -36 281 C-36.53367187 281.65484375 -37.06734375 282.3096875 -37.6171875 282.984375 C-52.1816582 300.77664732 -74.4871149 312.86406987 -96 320 C-96.63389648 320.22139648 -97.26779297 320.44279297 -97.92089844 320.67089844 C-121.21589257 328.76059298 -146.43954746 330.16880872 -170.9074707 330.11352539 C-172.70125673 330.11321842 -174.49504288 330.11335363 -176.28882885 330.11389065 C-181.05543488 330.1141147 -185.82201537 330.10835495 -190.58861542 330.10128021 C-195.0754758 330.09554907 -199.56233024 330.09531513 -204.04919434 330.09460449 C-217.13696622 330.08937498 -230.22473344 330.07541372 -243.3125 330.0625 C-272.579375 330.041875 -301.84625 330.02125 -332 330 C-332 221.43 -332 112.86 -332 1 C-249.26695928 0.74904938 -249.26695928 0.74904938 -214.79296875 0.64453125 C-206.90152995 0.62060593 -199.01009114 0.59668024 -191.11865234 0.57275391 C-190.1295313 0.56975497 -189.14041025 0.56675604 -188.12131584 0.56366622 C-172.13371749 0.51519257 -156.14611921 0.4666975 -140.15852095 0.41819459 C-123.76203143 0.36845167 -107.36554185 0.31873161 -90.9690522 0.26903296 C-80.84414722 0.23834309 -70.7192423 0.2076352 -60.59433745 0.17690456 C-53.65988225 0.15585913 -46.72542698 0.13483582 -39.79097165 0.11383021 C-35.78474669 0.10169403 -31.77852176 0.0895478 -27.77229691 0.07737541 C-24.10958862 0.06624696 -20.44688025 0.05514609 -16.7841718 0.0440678 C-14.82121131 0.03812324 -12.8582509 0.03214859 -10.89529049 0.02617311 C-9.16503654 0.02094802 -9.16503654 0.02094802 -7.39982796 0.01561737 C-6.39812573 0.01257961 -5.39642349 0.00954185 -4.36436665 0.00641203 C-2.90958155 0.00246673 -1.45479045 0 0 0 Z " fill="#F7F7F7" transform="translate(912,577)"/>
<path d="M0 0 C109.23 0 218.46 0 331 0 C332.14867502 29.86555063 332.14867502 29.86555063 332.12025452 40.62966919 C332.12153615 42.51896631 332.12153615 42.51896631 332.12284368 44.44643104 C332.1250188 47.84237717 332.12116708 51.23829013 332.11606562 54.63423204 C332.11165733 58.33387764 332.11321472 62.03352206 332.1139679 65.73316956 C332.1144867 72.10989941 332.11140813 78.48661886 332.10573006 84.8633461 C332.09752644 94.08248495 332.09499087 103.30161889 332.09374207 112.520761 C332.0915653 127.48617423 332.08494291 142.45158194 332.07543945 157.41699219 C332.06622948 171.9355466 332.05916628 186.4540995 332.05493164 200.97265625 C332.05453756 202.31999952 332.05453756 202.31999952 332.05413551 203.69456185 C332.05283026 208.20169894 332.05156661 212.70883604 332.05032361 217.21597314 C332.0399939 254.47731932 332.02241351 291.73865923 332 329 C308.46791674 329.04686963 284.93584055 329.08206181 261.4037199 329.10362434 C250.47559225 329.1139055 239.54749372 329.12790488 228.61938477 329.15087891 C219.08649369 329.1709101 209.55362373 329.18373936 200.0207122 329.18817699 C194.98035651 329.190768 189.94006117 329.19679093 184.89972496 329.21146011 C180.13996456 329.22519837 175.38028845 329.22919042 170.6205101 329.22621536 C168.88853685 329.22675836 167.15656031 329.23063785 165.42460442 329.23841095 C148.84479864 329.30907005 132.62037814 328.02042092 116.4375 324.25 C115.28620605 323.98469482 114.13491211 323.71938965 112.94873047 323.44604492 C85.47324248 316.95466792 62.647901 305.48752309 42 286 C41.25105469 285.31550781 40.50210938 284.63101562 39.73046875 283.92578125 C9.31632903 255.10958233 1.09025532 210.88877164 -0.0631609 170.80501986 C-0.31352703 158.94239342 -0.23982713 147.07369739 -0.20256042 135.20928192 C-0.19096175 130.90494023 -0.19062309 126.60062215 -0.18920898 122.29626465 C-0.17881566 109.80166242 -0.1508936 97.30707972 -0.125 84.8125 C-0.08375 56.824375 -0.0425 28.83625 0 0 Z " fill="#F8F8F8" transform="translate(112,578)"/>
<path d="M0 0 C44.7665625 -0.0928125 44.7665625 -0.0928125 90.4375 -0.1875 C104.50524048 -0.22846802 104.50524048 -0.22846802 118.85717773 -0.27026367 C130.4239502 -0.28381348 130.4239502 -0.28381348 135.86097717 -0.28633118 C139.60993418 -0.28909486 143.35876012 -0.30020998 147.10768127 -0.31672668 C172.94915346 -0.42552447 198.40214871 -0.44713966 223.5625 6.3125 C224.73449951 6.61808838 225.90649902 6.92367676 227.11401367 7.23852539 C247.23165131 12.60740688 265.07111349 20.39868515 281 34 C281.598125 34.50772949 282.19625 35.01545898 282.8125 35.53857422 C307.32706243 56.63769631 321.22207442 82.90788503 327.75 114.3125 C327.94891846 115.25883301 328.14783691 116.20516602 328.3527832 117.18017578 C332.75617599 139.87531134 332.27287574 162.78940729 332.20256042 185.79094696 C332.19102246 190.18432385 332.19062625 194.57767709 332.18920898 198.97106934 C332.17878662 211.7515599 332.15086421 224.53203136 332.125 237.3125 C332.08375 265.919375 332.0425 294.52625 332 324 C222.11 324 112.22 324 -1 324 C-0.67 217.08 -0.34 110.16 0 0 Z " fill="#F8F8F8" transform="translate(580,114)"/>
<path d="M0 0 C1.83411152 0.00028251 3.66822314 0.00012289 5.50233459 -0.0004425 C10.45194861 -0.00072799 15.40153811 0.00512839 20.35114646 0.01213145 C25.53478097 0.01840654 30.71841611 0.01897207 35.90205383 0.02015686 C45.70483264 0.02325796 55.50760021 0.03145482 65.31037408 0.04150635 C76.47607422 0.05270549 87.6417749 0.0581875 98.80747926 0.06320179 C121.76399304 0.07363851 144.72049686 0.0912142 167.67700195 0.11352539 C167.67662223 0.72173317 167.67624251 1.32994095 167.67585129 1.95657927 C167.65338994 38.1410198 167.6362736 74.32545928 167.62593662 110.50990537 C167.62468617 114.87118693 167.62339182 119.23246847 167.62207031 123.59375 C167.621808 124.4618685 167.62154569 125.32998701 167.62127543 126.22441214 C167.61694432 140.21320139 167.60907109 154.20198647 167.59984916 168.19077326 C167.59044102 182.58389064 167.58493131 196.97700586 167.58291346 211.37012619 C167.58155298 220.22511565 167.57728362 229.08009328 167.56908549 237.93507909 C167.56372932 244.03763116 167.5622174 250.14017728 167.56350058 256.24273152 C167.56413037 259.74421573 167.56328596 263.24567954 167.55779648 266.74715996 C167.55607563 268.0391688 167.55435478 269.33117764 167.55258179 270.66233826 C167.55056417 271.77428055 167.54854654 272.88622284 167.54646778 274.03186035 C167.5871567 290.77647516 168.13603686 307.34360751 168.67700195 324.11352539 C58.78700195 324.11352539 -51.10299805 324.11352539 -164.32299805 324.11352539 C-164.40549805 294.55790039 -164.48799805 265.00227539 -164.57299805 234.55102539 C-164.60941406 225.27936279 -164.64583008 216.0077002 -164.68334961 206.45507812 C-164.70141602 194.97888184 -164.70141602 194.97888184 -164.70477295 189.57655334 C-164.70844298 185.86864802 -164.72320008 182.16098064 -164.74530029 178.45314026 C-165.01504257 131.06974051 -162.09293075 84.54950542 -128.32299805 48.11352539 C-127.8228418 47.56954102 -127.32268555 47.02555664 -126.80737305 46.46508789 C-114.49282288 33.21761726 -100.83623746 23.46098922 -84.32299805 16.11352539 C-83.40333252 15.69828613 -83.40333252 15.69828613 -82.46508789 15.2746582 C-68.65131836 9.12283712 -54.11486331 5.74126859 -39.32299805 2.86352539 C-38.48752441 2.70029785 -37.65205078 2.53707031 -36.79125977 2.36889648 C-24.55558207 0.09603766 -12.40169748 -0.02688743 0 0 Z " fill="#F8F8F8" transform="translate(276.322998046875,113.886474609375)"/>
<path d="M0 0 C1.9779923 -0.00258857 3.95598409 -0.00560309 5.93397516 -0.0090034 C11.33787432 -0.01701969 16.74176017 -0.01885996 22.14566457 -0.01960087 C27.98735682 -0.02146099 33.8290423 -0.02901336 39.67073059 -0.03573608 C52.43437458 -0.04928452 65.19801541 -0.05533947 77.96166539 -0.05974674 C85.27950711 -0.06228484 92.5973478 -0.06599991 99.91518878 -0.07012341 C122.73938998 -0.08295765 145.56359072 -0.09367389 168.38779545 -0.09712601 C169.81866084 -0.09734763 171.24952624 -0.09756942 172.68039164 -0.09779136 C174.11450728 -0.09801199 175.54862291 -0.09823247 176.98273855 -0.09845281 C179.8592962 -0.09889533 182.73585385 -0.09934245 185.6124115 -0.09979248 C186.32562203 -0.09990187 187.03883255 -0.10001126 187.77365552 -0.10012397 C210.84785948 -0.10374657 233.92203187 -0.11963704 256.99622376 -0.14298284 C281.45550411 -0.16768422 305.91476645 -0.18130372 330.37405962 -0.18249393 C333.06925261 -0.18266534 335.7644456 -0.18288076 338.4596386 -0.18312836 C339.45491263 -0.18321201 339.45491263 -0.18321201 340.47029322 -0.18329735 C350.41191962 -0.18436896 360.35352042 -0.19365875 370.29513741 -0.20731354 C381.63760993 -0.22283836 392.98002839 -0.22776318 404.32250953 -0.21957543 C410.09316564 -0.21571141 415.86371332 -0.2163858 421.63435555 -0.23063278 C442.36409386 -0.27869862 463.01310853 -0.20228636 483.68612671 1.47521973 C484.41834952 1.53352977 485.15057233 1.59183982 485.90498371 1.65191683 C532.83106046 5.51304257 576.97921639 22.26444591 608.67417908 58.05059814 C616.74787542 67.65083371 623.29156966 78.11975144 629.22886658 89.14044189 C629.91915955 90.39727783 629.91915955 90.39727783 630.62339783 91.67950439 C636.5554515 102.94099042 640.35682179 114.82824927 643.41636658 127.14044189 C643.65411804 128.06864746 643.89186951 128.99685303 644.13682556 129.95318604 C648.53884256 148.49034616 649.67873876 167.41863848 649.61654663 186.40298462 C649.62073354 188.52944296 649.62621839 190.65589906 649.63286644 192.78235114 C649.64716169 198.549787 649.6431269 204.31707804 649.63569963 210.08452129 C649.63093036 216.33415712 649.64351067 222.58376327 649.65371704 228.83338928 C649.66985061 240.34346373 649.67236608 251.85347492 649.66741205 263.3635553 C649.66283604 274.00198521 649.66347741 284.64039828 649.6692524 295.27882767 C649.6700093 296.71170896 649.67076528 298.14459026 649.67152034 299.57747156 C649.67266566 301.73728695 649.67381555 303.89710234 649.67497958 306.05691772 C649.68566702 326.10710117 649.69042785 346.15727906 649.68250942 366.20746422 C649.68206366 367.33851368 649.68206366 367.33851368 649.6816089 368.49241262 C649.67916053 374.61377152 649.67654866 380.73513035 649.67392476 386.85648918 C649.66382442 410.72623192 649.67218087 434.59590428 649.69541931 458.46563721 C649.72155084 485.34985358 649.73432435 512.23402763 649.72723156 539.11825716 C649.72651561 541.99031297 649.72584121 544.86236877 649.72519112 547.73442459 C649.72502131 548.44147808 649.7248515 549.14853157 649.72467654 549.87701093 C649.72238372 560.50106559 649.73030151 571.12508065 649.74348259 581.74912643 C649.75846336 593.84450966 649.75877375 605.93977576 649.74141168 618.0351653 C649.73294145 624.19542531 649.73065416 630.35550988 649.74606323 636.51576042 C649.85724397 684.34010804 649.85724397 684.34010804 645.22886658 705.14044189 C644.99748814 706.22770966 644.99748814 706.22770966 644.76143539 707.33694243 C643.95640067 711.10455352 643.03646341 714.81084935 641.97886658 718.51544189 C641.68294617 719.57867676 641.38702576 720.64191162 641.08213806 721.73736572 C629.06414606 763.60740991 603.31307844 798.24757785 565.042099 819.77813721 C520.64758733 843.71156463 470.94442788 843.46216154 421.86286557 843.38723218 C416.04085336 843.38057388 410.21884868 843.38562102 404.39683533 843.38911438 C393.0305122 843.39412297 381.66421847 843.38855769 370.297899 843.37926408 C357.71173541 843.3693473 345.12557659 843.36889736 332.53941009 843.36936388 C307.48972747 843.37026706 282.44006006 843.36036816 257.3903827 843.34493422 C235.17842004 843.33129913 212.96646816 843.32507369 190.75450134 843.32574463 C189.32672347 843.32578504 187.8989456 843.3258254 186.47116774 843.32586571 C185.76526837 843.32588606 185.05936901 843.32590641 184.33207876 843.32592738 C180.77799817 843.32602819 177.22391759 843.32611877 173.669837 843.32619762 C172.61787396 843.32622269 172.61787396 843.32622269 171.54465913 843.32624827 C152.92682059 843.32661401 134.30898338 843.32206903 115.69114596 843.31587106 C115.02833455 843.31565079 114.36552314 843.31543052 113.68262653 843.31520357 C110.35513793 843.31409456 107.02764934 843.31297289 103.70016075 843.31183478 C94.4719712 843.30882694 85.24378257 843.30775625 76.01559258 843.30730247 C64.76695937 843.30661844 53.51833466 843.30212708 42.26970505 843.29296967 C36.5378053 843.28837229 30.80591638 843.28529855 25.07401466 843.28656387 C19.81708896 843.28766804 14.56018709 843.28408546 9.30326635 843.27691535 C7.41211106 843.27511926 5.52095328 843.27495463 3.62979793 843.27668264 C-13.06514971 843.29023658 -29.59564049 842.73202416 -46.14613342 840.39044189 C-47.38999817 840.2148877 -48.63386292 840.0393335 -49.91542053 839.85845947 C-95.90533621 833.07384088 -136.96492992 813.22897416 -165.24769592 775.62481689 C-178.03460811 758.17149958 -185.8531626 738.81914348 -191.77113342 718.14044189 C-191.98108948 717.42823486 -192.19104553 716.71602783 -192.40736389 715.98223877 C-199.11967656 692.98477935 -199.92583173 668.73539356 -199.90484619 644.94015503 C-199.90671734 642.91577467 -199.90901925 640.89139467 -199.91171151 638.86701524 C-199.91779851 633.33540242 -199.91769959 627.80380478 -199.91651714 622.27218938 C-199.91631234 616.29373141 -199.92183948 610.31527823 -199.92657471 604.33682251 C-199.93486523 592.63450507 -199.93764184 580.9321914 -199.93818709 569.22987147 C-199.93864769 559.71095948 -199.94071153 550.19204912 -199.94388771 540.67313766 C-199.94478534 537.92711747 -199.94567516 535.18109727 -199.94656259 532.43507707 C-199.94678364 531.75228218 -199.94700468 531.06948729 -199.94723243 530.36600164 C-199.95338228 511.17319856 -199.95733345 491.98039604 -199.95688915 472.78759193 C-199.95687357 472.06475415 -199.956858 471.34191637 -199.95684194 470.59717442 C-199.95675884 466.93405484 -199.9566598 463.27093527 -199.95655724 459.6078157 C-199.95653729 458.88039088 -199.95651735 458.15296605 -199.9564968 457.40349806 C-199.95645636 455.93246778 -199.95641456 454.4614375 -199.95637141 452.99040723 C-199.95575916 430.12260643 -199.96325765 407.25482048 -199.97694397 384.38702393 C-199.99233793 358.65581267 -200.00090817 332.92461117 -199.99998075 307.19339502 C-199.99990613 304.44423127 -199.99985741 301.69506753 -199.99982643 298.94590378 C-199.99981478 298.2690629 -199.99980312 297.59222202 -199.99979112 296.89487081 C-199.99976047 286.04922184 -200.00611946 275.20358586 -200.0147587 264.35794074 C-200.02327716 253.43720539 -200.02402249 242.51648973 -200.01764937 231.59575291 C-200.01439987 225.69103839 -200.01427023 219.78637046 -200.02300262 213.88166046 C-200.10039477 158.06131126 -200.10039477 158.06131126 -195.52113342 135.76544189 C-195.30207336 134.68077637 -195.08301331 133.59611084 -194.85731506 132.47857666 C-188.23392764 100.92338427 -173.26371335 73.13635228 -150.77113342 50.14044189 C-150.02476624 49.33219971 -149.27839905 48.52395752 -148.50941467 47.69122314 C-123.1988712 20.88356804 -84.13007532 8.63423939 -48.77113342 3.14044189 C-47.68179504 2.97052734 -47.68179504 2.97052734 -46.57044983 2.79718018 C-31.04454112 0.43299923 -15.66468814 -0.00827047 0 0 Z M-117.77113342 54.14044189 C-118.65671936 54.80430908 -119.5423053 55.46817627 -120.45472717 56.15216064 C-151.13749234 80.24414317 -168.41176987 112.25138382 -173.36114502 150.70735168 C-175.74171761 170.60130796 -175.1894388 190.69526134 -175.14864838 210.69567668 C-175.13971178 216.70875047 -175.14827691 222.72180484 -175.1545105 228.73487854 C-175.16340299 239.80451388 -175.15888181 250.87409942 -175.14734668 261.94373003 C-175.13675915 272.17521952 -175.13227769 282.40669057 -175.1336422 292.6381855 C-175.13372623 293.32010791 -175.13381026 294.00203031 -175.13389683 294.70461703 C-175.13424915 297.47362523 -175.13463319 300.24263341 -175.13506241 303.0116416 C-175.13901673 328.92330277 -175.12636078 354.8349314 -175.10553585 380.74658327 C-175.08717207 403.70364265 -175.08135418 426.66067087 -175.08680725 449.61773682 C-175.08715369 451.09193188 -175.08749979 452.56612694 -175.08784554 454.040322 C-175.08801654 454.76918033 -175.08818753 455.49803866 -175.08836371 456.24898361 C-175.08921742 459.91895658 -175.0900412 463.58892956 -175.09083271 467.25890255 C-175.09098979 467.98313574 -175.09114687 468.70736893 -175.09130871 469.45354858 C-175.09531032 488.70807913 -175.08980761 507.96260674 -175.08132142 527.21713549 C-175.0804145 529.2921635 -175.07950885 531.36719151 -175.07860619 533.44221952 C-175.07800508 534.81839326 -175.07739646 536.194567 -175.07678028 537.57074073 C-175.0725801 547.11428246 -175.07197173 556.65781829 -175.07388577 566.20136064 C-175.0763422 578.50874086 -175.07193838 590.81609204 -175.05667577 603.12346428 C-175.04948598 609.04685746 -175.04530782 614.97020751 -175.04991913 620.89360428 C-175.12782615 655.06680875 -175.12782615 655.06680875 -172.77113342 689.14044189 C-172.64186287 690.37057803 -172.64186287 690.37057803 -172.5099808 691.62556541 C-168.51688386 728.27856558 -150.64923752 761.70333976 -122.28285217 785.07794189 C-103.27790523 800.03755387 -81.62261338 808.02370914 -58.33363342 813.39044189 C-56.74591125 813.76036255 -56.74591125 813.76036255 -55.12611389 814.13775635 C-38.44365544 817.78759647 -21.73027999 818.43663944 -4.71487427 818.39440918 C-2.65857837 818.39671937 -0.6022833 818.39989961 1.45401007 818.40386367 C7.05047678 818.41214368 12.6468745 818.4081176 18.24334133 818.40189123 C24.30002913 818.39733965 30.35670561 818.40436386 36.41339111 818.40985107 C47.57448687 818.41820687 58.73556078 818.41751616 69.89665607 818.41202814 C80.21090742 818.40698189 90.52515082 818.40569064 100.83940315 818.40807343 C101.86869138 818.40830258 101.86869138 818.40830258 102.9187733 818.40853637 C105.70479327 818.40915912 108.49081325 818.40979593 111.27683321 818.41045589 C137.37248726 818.4165637 163.46812749 818.41104329 189.5637794 818.4002621 C212.70760167 818.39077309 235.85140192 818.39162044 258.995224 818.40118408 C285.04395989 818.41191234 311.09268358 818.41612935 337.14142138 818.40995955 C339.92245233 818.4093182 342.70348328 818.40869251 345.48451424 818.40807343 C346.16919121 818.40791527 346.85386818 818.40775712 347.55929294 818.40759417 C357.8620106 818.40532694 368.1647194 818.40796533 378.46743584 818.41303253 C390.1923469 818.41877073 401.91723703 818.41708872 413.64214581 818.40647104 C419.61728174 818.4012374 425.59237316 818.39911799 431.5675087 818.40576935 C437.04939762 818.41177905 442.53120126 818.40837186 448.01308257 818.39781424 C449.98391985 818.39560131 451.95476451 818.39666837 453.92559694 818.40156582 C466.81482545 818.43110916 479.43118117 817.67582099 492.22886658 816.14044189 C493.54672147 815.98352306 493.54672147 815.98352306 494.8911997 815.82343414 C525.46615313 812.15600357 553.68513042 801.15939606 577.22886658 781.14044189 C577.78703064 780.70344971 578.3451947 780.26645752 578.92027283 779.81622314 C583.26480376 776.40185289 586.70725019 772.36339713 590.22886658 768.14044189 C590.85792908 767.41083252 591.48699158 766.68122314 592.13511658 765.92950439 C602.91178565 753.05737189 609.64122188 738.85251782 615.22886658 723.14044189 C615.48152283 722.43194092 615.73417908 721.72343994 615.99449158 720.99346924 C624.12350662 697.53787376 625.38190744 672.57141452 625.36930847 647.97343445 C625.37189626 645.94039338 625.37491056 643.90735281 625.37831187 641.87431294 C625.38633688 636.31396009 625.38816892 630.75362018 625.38890934 625.19326222 C625.39076783 619.18539725 625.39831922 613.17753886 625.40504456 607.16967773 C625.41930352 593.35901373 625.42515081 579.54835154 625.4297365 565.73768198 C625.43207815 558.90074159 625.43568146 552.06380204 625.43943188 545.22686231 C625.45226426 521.78574844 625.46298255 498.34463502 625.46643448 474.90351772 C625.4666561 473.43385383 625.46687789 471.96418993 625.46709983 470.49452603 C625.46732046 469.02147442 625.46754095 467.54842281 625.46776128 466.07537121 C625.46820381 463.12058031 625.46865093 460.16578942 625.46910095 457.21099854 C625.46921034 456.47839018 625.46931973 455.74578182 625.46943244 454.99097321 C625.47305868 431.26515689 625.48896396 407.53937121 625.51229132 383.81356662 C625.5369557 358.6815488 625.55061042 333.54954846 625.5518024 308.4175182 C625.55197383 305.65197789 625.55218925 302.88643759 625.55243683 300.12089729 C625.55252048 299.09959658 625.55252048 299.09959658 625.55260582 298.05766354 C625.55375067 287.1578809 625.56472423 276.25813001 625.57932388 265.35835805 C625.59377856 254.37581437 625.59662583 243.39331273 625.58888391 232.41076224 C625.58500339 226.47515751 625.5857783 220.53965828 625.59994125 214.60406685 C626.0496127 158.4924706 626.0496127 158.4924706 610.22886658 105.14044189 C609.79235779 104.21811768 609.79235779 104.21811768 609.34703064 103.27716064 C604.72662537 93.67454059 599.10899528 85.26338316 592.22886658 77.14044189 C591.79703064 76.62884521 591.3651947 76.11724854 590.92027283 75.59014893 C570.33819334 51.51919321 545.4609769 39.2549319 515.22886658 31.14044189 C514.05710876 30.81044189 512.88535095 30.48044189 511.67808533 30.14044189 C485.70373765 23.39203221 458.36594348 24.7100639 431.78301799 24.76292694 C425.62425983 24.77185454 419.46552076 24.76330116 413.3067627 24.75706482 C401.9690641 24.74816917 390.63143048 24.75269583 379.29373976 24.76422864 C368.82110773 24.77480783 358.34849372 24.77929866 347.8758564 24.77793312 C346.82967992 24.77780707 346.82967992 24.77780707 345.76236857 24.77767848 C342.93055596 24.77732618 340.09874336 24.77694216 337.26693077 24.77651291 C310.76825405 24.77255839 284.26960916 24.78521786 257.77094155 24.80603947 C234.2636631 24.8244237 210.75641511 24.83021615 187.24913025 24.82476807 C185.73821588 24.82442163 184.22730151 24.82407553 182.71638715 24.82372978 C181.96939224 24.82355878 181.22239734 24.82338779 180.45276623 24.82321161 C176.69193987 24.82235797 172.93111351 24.8215342 169.17028713 24.82074261 C168.42821605 24.82058553 167.68614496 24.82042845 166.92158688 24.82026661 C147.23045617 24.81627235 127.53932837 24.82175738 107.84819943 24.8302539 C105.72844611 24.83116087 103.60869279 24.83206652 101.48893947 24.83296913 C100.08298352 24.83357023 98.67702758 24.83417885 97.27107164 24.83479504 C87.49466448 24.83900615 77.71826307 24.83959901 67.9418553 24.83768954 C55.34627198 24.83524148 42.75072181 24.83957397 30.15514433 24.85489955 C24.08730204 24.86212431 18.0195022 24.86623688 11.95165634 24.86165619 C6.3900286 24.85755982 0.82848826 24.86280162 -4.73312628 24.87528227 C-6.73735901 24.87819373 -8.74160007 24.87780155 -10.7458306 24.87363919 C-47.19340127 24.80485736 -87.95671434 31.7045553 -117.77113342 54.14044189 Z " fill="#393A3A" transform="translate(286.77113342285156,88.85955810546875)"/>
<path d="M0 0 C15.18 0 30.36 0 46 0 C45.38125 4.351875 44.7625 8.70375 44.125 13.1875 C42.41035903 25.4339454 41.02362742 37.67606465 40 50 C44.24627414 49.61217337 48.4922618 49.22136613 52.73803711 48.828125 C54.17383921 48.69552567 55.60970899 48.56365655 57.0456543 48.43261719 C67.71936091 47.45784946 78.36072485 46.29753352 89 45 C88.99476318 46.03294189 88.98952637 47.06588379 88.98413086 48.13012695 C88.96584479 52.01227938 88.95448291 55.8944281 88.94506836 59.77661133 C88.94008154 61.44751631 88.93328969 63.11841702 88.92456055 64.78930664 C88.87814269 73.91178123 88.87696252 82.92833871 90 92 C89.32533691 91.91435791 88.65067383 91.82871582 87.95556641 91.74047852 C84.84554662 91.34647173 81.73527649 90.95447506 78.625 90.5625 C77.03365234 90.36043945 77.03365234 90.36043945 75.41015625 90.15429688 C72.27453575 89.7599397 69.13758667 89.37835903 66 89 C65.17725586 88.89413574 64.35451172 88.78827148 63.50683594 88.67919922 C56.01303375 87.79949201 48.53338252 87.90959941 41 88 C41.17390259 89.69358643 41.17390259 89.69358643 41.35131836 91.42138672 C41.78569565 95.65200463 42.21989906 99.88264038 42.65405273 104.11328125 C42.84118054 105.93652823 43.02835409 107.75977051 43.21557617 109.58300781 C43.48628885 112.21938838 43.7568313 114.85578638 44.02734375 117.4921875 C44.1508445 118.69438431 44.1508445 118.69438431 44.27684021 119.92086792 C44.86066564 125.61302811 45.43063275 131.30632753 46 137 C30.82 137 15.64 137 0 137 C1.14927198 118.61164825 1.14927198 118.61164825 1.75390625 112 C1.81907944 111.26797363 1.88425262 110.53594727 1.95140076 109.78173828 C2.15312231 107.52097624 2.35773155 105.26048786 2.5625 103 C2.70266914 101.4349133 2.84264392 99.86980918 2.98242188 98.3046875 C3.31938751 94.53625493 3.65893632 90.76806379 4 87 C-10.46950659 88.03473041 -24.71012766 89.49426086 -39 92 C-40.9997598 92.33477132 -42.99965995 92.6687134 -45 93 C-44.9278125 92.18660156 -44.855625 91.37320313 -44.78125 90.53515625 C-43.54621422 75.28589504 -43.93133707 60.24753005 -45 45 C-43.98808594 45.19335938 -42.97617188 45.38671875 -41.93359375 45.5859375 C-26.39086058 48.37198362 -10.74240228 49.1585723 5 50 C4.77280273 48.04779541 4.77280273 48.04779541 4.54101562 46.05615234 C3.9784896 41.21475006 3.42046062 36.37283811 2.86376953 31.53076172 C2.6224785 29.43752154 2.37997784 27.34442042 2.13623047 25.25146484 C1.78553143 22.23831597 1.43922496 19.22468926 1.09375 16.2109375 C0.9843811 15.27945892 0.87501221 14.34798035 0.7623291 13.38827515 C0.61217346 12.0675853 0.61217346 12.0675853 0.45898438 10.72021484 C0.37015991 9.95188324 0.28133545 9.18355164 0.18981934 8.39193726 C-0.03153064 5.60267849 0 2.79802792 0 0 Z " fill="#E91D1A" transform="translate(254,207)"/>
<path d="M0 0 C15.18 0 30.36 0 46 0 C44.88146912 11.18530885 44.88146912 11.18530885 44.28125 15.41015625 C42.68607703 26.94207483 41.45289758 38.36521737 41 50 C41.91394531 49.89042969 42.82789063 49.78085937 43.76953125 49.66796875 C53.27978466 48.53478032 62.79506144 47.44605349 72.3125 46.375 C73.49884033 46.23989014 74.68518066 46.10478027 75.9074707 45.96557617 C77.58715942 45.77765503 77.58715942 45.77765503 79.30078125 45.5859375 C80.80378784 45.41650635 80.80378784 45.41650635 82.3371582 45.24365234 C85 45 85 45 89 45 C88.9278125 45.79535156 88.855625 46.59070313 88.78125 47.41015625 C87.63847748 62.25032718 87.90893343 77.12672833 88 92 C86.70191406 91.80664062 85.40382813 91.61328125 84.06640625 91.4140625 C69.74505759 89.34091996 55.43316366 88.00869161 41 87 C41.16064941 87.74443359 41.32129883 88.48886719 41.48681641 89.25585938 C42.18475933 92.98796142 42.24125776 96.7154454 42.375 100.5 C42.72588337 108.77954505 43.69793197 116.87302127 44.98388672 125.05664062 C45.11424316 125.89130859 45.24459961 126.72597656 45.37890625 127.5859375 C45.4982251 128.3186084 45.61754395 129.0512793 45.74047852 129.80615234 C46 132 46 132 46 137 C30.82 137 15.64 137 0 137 C1.14927198 120.91019222 1.14927198 120.91019222 1.97265625 113.7578125 C2.1037101 112.58893997 2.1037101 112.58893997 2.2374115 111.39645386 C2.50980235 108.97232941 2.7860575 106.54866536 3.0625 104.125 C3.25091084 102.45445636 3.43906342 100.78388358 3.62695312 99.11328125 C4.08166849 95.0751797 4.53984312 91.03748493 5 87 C0.91391757 87.21704634 -3.17116895 87.4478406 -7.25585938 87.68969727 C-8.63619529 87.76968678 -10.01672911 87.84635268 -11.39746094 87.91918945 C-22.5171993 88.5093659 -32.91630071 90.15271679 -44 92 C-44 76.49 -44 60.98 -44 45 C-27.9375 46.9375 -27.9375 46.9375 -22.97241211 47.54272461 C-13.65688109 48.66092966 -4.36923256 49.48308278 5 50 C3.87030351 37.98534557 2.55779804 26.01185466 0.96557617 14.04882812 C0.77765503 12.60540039 0.77765503 12.60540039 0.5859375 11.1328125 C0.4729834 10.28605957 0.3600293 9.43930664 0.24365234 8.56689453 C-0.0263034 5.72289181 0 2.85678624 0 0 Z " fill="#E91E1A" transform="translate(726,207)"/>
<path d="M0 0 C15.51 0 31.02 0 47 0 C46.38125 4.7025 45.7625 9.405 45.125 14.25 C43.53122575 26.48289377 42.110374 38.71283505 41 51 C65.56424905 48.49849054 65.56424905 48.49849054 90 45 C90 60.18 90 75.36 90 91 C73.65690126 89.76322496 57.32466963 88.45931942 41 87 C41.33 87.66 41.66 88.32 42 89 C42.1979063 90.62294093 42.34467848 92.25227134 42.46484375 93.8828125 C42.5417041 94.87796875 42.61856445 95.873125 42.69775391 96.8984375 C42.77687012 97.96320313 42.85598633 99.02796875 42.9375 100.125 C43.60086433 108.64853398 44.42642225 117.09920841 45.6328125 125.5625 C46.03796178 129.3553869 46 133.18553582 46 137 C31.15 137 16.3 137 1 137 C1.7115625 130.750625 1.7115625 130.750625 2.4375 124.375 C3.8129903 111.91786769 4.59234416 99.52076762 5 87 C-0.69268395 87.549931 -6.38522309 88.10133061 -12.07763672 88.65405273 C-14.01151748 88.84162463 -15.94543626 89.02880506 -17.87939453 89.21557617 C-20.66969892 89.48511871 -23.4598606 89.7560993 -26.25 90.02734375 C-27.533302 90.1508445 -27.533302 90.1508445 -28.8425293 90.27684021 C-33.90735673 90.77086734 -38.95323546 91.34626084 -44 92 C-43.9278125 91.20980469 -43.855625 90.41960937 -43.78125 89.60546875 C-42.55539433 74.70791719 -42.64007737 59.88629595 -44 45 C-42.35644531 45.29003906 -42.35644531 45.29003906 -40.6796875 45.5859375 C-25.19016151 48.17585287 -9.66030903 49.12597273 6 50 C5.46775665 45.45075264 4.93466887 40.90160521 4.40087891 36.35253906 C4.22032189 34.81285112 4.03997506 33.27313852 3.85986328 31.73339844 C3.59726731 29.488863 3.33385209 27.24442482 3.0703125 25 C2.99313995 24.33887207 2.91596741 23.67774414 2.8364563 22.99658203 C1.93404974 15.32527352 0.9581623 7.66529842 0 0 Z " fill="#E51C19" transform="translate(253,669)"/>
<path d="M0 0 C15.18 0 30.36 0 46 0 C44.85072802 16.08980778 44.85072802 16.08980778 44.02734375 23.4609375 C43.8962899 24.6631041 43.8962899 24.6631041 43.7625885 25.88955688 C43.48999769 28.38497926 43.2138338 30.87998966 42.9375 33.375 C42.74910893 35.09372371 42.56095642 36.81247358 42.37304688 38.53125 C41.91810619 42.6878059 41.45996675 46.84399741 41 51 C65.60837386 48.83678658 65.60837386 48.83678658 90 45 C89.9278125 45.71800781 89.855625 46.43601562 89.78125 47.17578125 C88.46913969 61.80945597 88.72171727 76.37344411 90 91 C79.39087922 90.20363351 68.7892493 89.32564336 58.1875 88.4375 C56.51237306 88.29748697 54.83724287 88.15751276 53.16210938 88.01757812 C49.10803545 87.67883188 45.0540055 87.33956409 41 87 C41.17390259 88.63243652 41.17390259 88.63243652 41.35131836 90.29785156 C41.78693572 94.39047993 42.22074721 98.48329815 42.65405273 102.57617188 C42.84074548 104.33729072 43.02790811 106.09835982 43.21557617 107.859375 C43.48744577 110.41132426 43.75754455 112.96345612 44.02734375 115.515625 C44.10967758 116.28489319 44.19201141 117.05416138 44.27684021 117.84674072 C44.94869974 124.22782058 45.46672322 130.60067859 46 137 C30.82 137 15.64 137 0 137 C1.9375 120.4375 1.9375 120.4375 2.54272461 115.31420898 C3.64082039 105.88453366 4.4734901 96.47981517 5 87 C-13.16942498 88.43554348 -13.16942498 88.43554348 -31.28857422 90.39013672 C-35.26911763 90.86558254 -38.95615399 91 -43 91 C-43 75.82 -43 60.64 -43 45 C-35.74 45.99 -28.48 46.98 -21 48 C-16.17820946 48.31488263 -11.44353506 48.58453985 -6.625 48.6875 C-5.48417969 48.72166016 -4.34335937 48.75582031 -3.16796875 48.79101562 C-0.4454113 48.87109084 2.27692089 48.94094449 5 49 C4.61217337 44.75372586 4.22136613 40.5077382 3.828125 36.26196289 C3.69552567 34.82616079 3.56365655 33.39029101 3.43261719 31.9543457 C3.2409954 29.85608714 3.0464883 27.75811019 2.8515625 25.66015625 C2.67874756 23.78275757 2.67874756 23.78275757 2.50244141 21.86743164 C1.7491105 14.56949272 0.8572312 7.28646517 0 0 Z " fill="#E71D1A" transform="translate(725,669)"/>
<path d="M0 0 C0.33 0 0.66 0 1 0 C1 58.74 1 117.48 1 178 C0.67 178 0.34 178 0 178 C-0.33 176.35 -0.66 174.7 -1 173 C-1.33 173 -1.66 173 -2 173 C-2.156036 164.0442583 -2.30414099 155.08842659 -2.4429636 146.13240147 C-2.50770222 141.97076448 -2.57486213 137.80920022 -2.64819336 133.64770508 C-3.20944514 101.61014545 -3.20944514 101.61014545 -2.4143219 85.61778259 C-1.96349625 76.31123296 -1.82587926 67.01087349 -1.71875 57.6953125 C-1.70924253 56.8985076 -1.69973507 56.10170269 -1.6899395 55.28075218 C-1.61194909 48.71683341 -1.54139023 42.15284106 -1.47393799 35.58880615 C-1.42298299 30.6326307 -1.36833732 25.67652713 -1.30812073 20.72045517 C-1.28171432 18.42320648 -1.26084433 16.12594961 -1.2401123 13.8286438 C-1.22352628 12.43409877 -1.20665597 11.03955709 -1.18945312 9.64501953 C-1.17692505 8.43024933 -1.16439697 7.21547913 -1.15148926 5.96389771 C-1 3 -1 3 0 0 Z " fill="#E82E2C" transform="translate(579,256)"/>
<path d="M0 0 C0.99 0 1.98 0 3 0 C3 2.64 3 5.28 3 8 C-2.64165361 8.07410727 -8.28302447 8.12858167 -13.92504883 8.16479492 C-15.84469538 8.1798898 -17.7643074 8.20036773 -19.68383789 8.22631836 C-22.44165564 8.26267109 -25.1990178 8.27971912 -27.95703125 8.29296875 C-28.81649857 8.30845261 -29.67596588 8.32393646 -30.56147766 8.33988953 C-31.36208115 8.34011612 -32.16268463 8.34034271 -32.98754883 8.34057617 C-34.04344963 8.35056892 -34.04344963 8.35056892 -35.12068176 8.36076355 C-37 8 -37 8 -40 5 C-26.8 5 -13.6 5 0 5 C0 3.35 0 1.7 0 0 Z " fill="#E84240" transform="translate(296,798)"/>
<path d="M0 0 C2.12401038 4.24802077 2.2376107 7.16761063 2.125 11.75 C2.11597656 12.44738281 2.10695313 13.14476562 2.09765625 13.86328125 C2.07419888 15.57566958 2.03833104 17.28788004 2 19 C4.97 19.33 7.94 19.66 11 20 C11 20.33 11 20.66 11 21 C7.04 21 3.08 21 -1 21 C-0.67 14.07 -0.34 7.14 0 0 Z " fill="#F7F1F1" transform="translate(295,236)"/>
<path d="M0 0 C2 3 2 3 2 8 C-11.86 7.67 -25.72 7.34 -40 7 C-40 6.67 -40 6.34 -40 6 C-26.8 6 -13.6 6 0 6 C0 4.02 0 2.04 0 0 Z " fill="#E80B0B" transform="translate(770,336)"/>
<path d="M0 0 C10.71460306 -0.14036598 21.3120232 0.26740918 32 1 C32 1.33 32 1.66 32 2 C30.75126099 2.01401855 30.75126099 2.01401855 29.47729492 2.02832031 C26.38497711 2.07236366 23.29365054 2.13398775 20.2019043 2.20751953 C18.20710869 2.24958649 16.21191918 2.27137864 14.21679688 2.29296875 C12.96318359 2.32519531 11.70957031 2.35742188 10.41796875 2.390625 C9.26063232 2.41157227 8.1032959 2.43251953 6.91088867 2.45410156 C3.88013147 2.72467265 3.88013147 2.72467265 2.09887695 5.03808594 C1.73624756 5.68551758 1.37361816 6.33294922 1 7 C0.67 4.69 0.34 2.38 0 0 Z " fill="#E90B09" transform="translate(253,669)"/>
<path d="M0 0 C0 3.3 0 6.6 0 10 C-2.29109597 10.08075665 -4.58299267 10.13907731 -6.875 10.1875 C-8.15117187 10.22230469 -9.42734375 10.25710938 -10.7421875 10.29296875 C-11.81726563 10.19628906 -12.89234375 10.09960938 -14 10 C-14.66 9.01 -15.32 8.02 -16 7 C-11.71 7 -7.42 7 -3 7 C-3 5.02 -3 3.04 -3 1 C-1 0 -1 0 0 0 Z " fill="#F7E9E9" transform="translate(259,247)"/>
<path d="M0 0 C3.10414702 -0.02903577 6.20825909 -0.0468107 9.3125 -0.0625 C10.19357422 -0.07087891 11.07464844 -0.07925781 11.98242188 -0.08789062 C12.82998047 -0.09111328 13.67753906 -0.09433594 14.55078125 -0.09765625 C15.72120972 -0.10551147 15.72120972 -0.10551147 16.9152832 -0.11352539 C19 0 19 0 22 1 C22 1.66 22 2.32 22 3 C13.09 3 4.18 3 -5 3 C-5 2.67 -5 2.34 -5 2 C-3.35 1.67 -1.7 1.34 0 1 C0 0.67 0 0.34 0 0 Z " fill="#EB3736" transform="translate(268,669)"/>
<path d="M0 0 C11.22 0.33 22.44 0.66 34 1 C34 1.33 34 1.66 34 2 C23.44 2 12.88 2 2 2 C2 3.98 2 5.96 2 8 C1.67 8 1.34 8 1 8 C0.67 5.36 0.34 2.72 0 0 Z " fill="#E90200" transform="translate(725,669)"/>
<path d="M0 0 C0.33 0 0.66 0 1 0 C1.33 5.61 1.66 11.22 2 17 C3.65 17 5.3 17 7 17 C5.8125 18.5 5.8125 18.5 4 20 C1.38671875 20.09375 1.38671875 20.09375 -1 20 C-1.02696009 17.2291017 -1.04681952 14.4584655 -1.0625 11.6875 C-1.07087891 10.90181641 -1.07925781 10.11613281 -1.08789062 9.30664062 C-1.09111328 8.54931641 -1.09433594 7.79199219 -1.09765625 7.01171875 C-1.10289307 6.31522217 -1.10812988 5.61872559 -1.11352539 4.90112305 C-1 3 -1 3 0 0 Z " fill="#F8F0EF" transform="translate(768,237)"/>
<path d="M0 0 C0.66 0.33 1.32 0.66 2 1 C-2.625 4 -2.625 4 -6 4 C-6 4.66 -6 5.32 -6 6 C-10.32059823 7.09845718 -14.61667943 8.17812739 -19 9 C-19 8.01 -19 7.02 -19 6 C-17.87980469 5.65066406 -16.75960937 5.30132813 -15.60546875 4.94140625 C-14.13280778 4.48178595 -12.66015179 4.0221497 -11.1875 3.5625 C-10.44951172 3.33240234 -9.71152344 3.10230469 -8.95117188 2.86523438 C-5.95981589 1.9312816 -2.97302688 0.99100896 0 0 Z " fill="#E8E8E9" transform="translate(828,918)"/>
<path d="M0 0 C1.79133978 -0.05391993 3.58313899 -0.09275571 5.375 -0.125 C6.37273438 -0.14820313 7.37046875 -0.17140625 8.3984375 -0.1953125 C11 0 11 0 13 2 C9.37 2 5.74 2 2 2 C2 5.3 2 8.6 2 12 C-0.13586678 8.79619983 -0.23132175 7.98060033 -0.125 4.3125 C-0.10695313 3.50425781 -0.08890625 2.69601562 -0.0703125 1.86328125 C-0.04710937 1.24839844 -0.02390625 0.63351562 0 0 Z " fill="#F5CDCC" transform="translate(766,756)"/>
<path d="M0 0 C12.66970387 -0.18451025 12.66970387 -0.18451025 18 1 C18 1.33 18 1.66 18 2 C12.72 2 7.44 2 2 2 C2 4.64 2 7.28 2 10 C1.67 10 1.34 10 1 10 C0.67 6.7 0.34 3.4 0 0 Z " fill="#F7E6E5" transform="translate(767,294)"/>
<path d="M0 0 C2.97 0.495 2.97 0.495 6 1 C6.33 1.99 6.66 2.98 7 4 C5.68 4 4.36 4 3 4 C3 6.97 3 9.94 3 13 C2.01 12.34 1.02 11.68 0 11 C-0.29296875 8.3984375 -0.29296875 8.3984375 -0.1875 5.375 C-0.16042969 4.37210938 -0.13335938 3.36921875 -0.10546875 2.3359375 C-0.07066406 1.56507813 -0.03585937 0.79421875 0 0 Z " fill="#E92926" transform="translate(682,714)"/>
<path d="M0 0 C0.66 0 1.32 0 2 0 C3.515625 1.57421875 3.515625 1.57421875 5.25 3.6875 C8.25954469 7.23964603 11.33524535 10.13970369 15 13 C14.34 13.66 13.68 14.32 13 15 C10.82722286 12.88094537 8.66173092 10.75527122 6.5 8.625 C5.87996094 8.02171875 5.25992188 7.4184375 4.62109375 6.796875 C4.03457031 6.21679688 3.44804687 5.63671875 2.84375 5.0390625 C2.29912109 4.50490723 1.75449219 3.97075195 1.19335938 3.42041016 C0 2 0 2 0 0 Z " fill="#333434" transform="translate(132,875)"/>
<path d="M0 0 C0.66 0 1.32 0 2 0 C0.38989473 4.07376031 -2.53822271 6.76507069 -5.625 9.75 C-6.140625 10.25660156 -6.65625 10.76320313 -7.1875 11.28515625 C-8.45383339 12.52803902 -9.7263144 13.76465276 -11 15 C-11.66 14.67 -12.32 14.34 -13 14 C-12.22914063 13.24074219 -11.45828125 12.48148438 -10.6640625 11.69921875 C-9.65090904 10.69544634 -8.63789552 9.69153268 -7.625 8.6875 C-7.11710938 8.18798828 -6.60921875 7.68847656 -6.0859375 7.17382812 C-3.77145867 4.87457613 -1.81652517 2.72478775 0 0 Z " fill="#F6F6F7" transform="translate(894,873)"/>
<path d="M0 0 C0 0.99 0 1.98 0 3 C-5.61 3 -11.22 3 -17 3 C-17 2.67 -17 2.34 -17 2 C-11.21642935 -0.01167675 -6.09781001 -0.22084624 0 0 Z " fill="#E42725" transform="translate(910,575)"/>
<path d="M0 0 C0 0.66 0 1.32 0 2 C-5.75 2.125 -5.75 2.125 -8 1 C-8 1.66 -8 2.32 -8 3 C-9.9375 2.625 -9.9375 2.625 -12 2 C-12.33 1.34 -12.66 0.68 -13 0 C-4.57142857 -1.28571429 -4.57142857 -1.28571429 0 0 Z " fill="#EA2421" transform="translate(802,718)"/>
<path d="M0 0 C1.64350079 3.28700157 2.41321669 5.47930015 3 9 C6.3 9.33 9.6 9.66 13 10 C13 10.33 13 10.66 13 11 C8.71 11 4.42 11 0 11 C0 7.37 0 3.74 0 0 Z " fill="#F5D8D6" transform="translate(766,709)"/>
<path d="M0 0 C0.33 0 0.66 0 1 0 C1.71033431 5.52967941 2.30267176 10.49983036 1 16 C-1.31 16 -3.62 16 -6 16 C-6 15.67 -6 15.34 -6 15 C-4.02 15 -2.04 15 0 15 C-0.185625 13.824375 -0.37125 12.64875 -0.5625 11.4375 C-1.08230996 7.38731406 -0.7502354 4.00125547 0 0 Z " fill="#EA2826" transform="translate(769,326)"/>
<path d="M0 0 C0 1.65 0 3.3 0 5 C2.31 5 4.62 5 7 5 C7 5.33 7 5.66 7 6 C5.35 6.33 3.7 6.66 2 7 C2 7.33 2 7.66 2 8 C0.35 8 -1.3 8 -3 8 C-3 5.69 -3 3.38 -3 1 C-1 0 -1 0 0 0 Z " fill="#EA2A26" transform="translate(729,336)"/>
<path d="M0 0 C0 1.98 0 3.96 0 6 C1.65 6 3.3 6 5 6 C3.8125 7.5 3.8125 7.5 2 9 C-0.6875 9.1875 -0.6875 9.1875 -3 9 C-3 6.36 -3 3.72 -3 1 C-1 0 -1 0 0 0 Z " fill="#EA2926" transform="translate(257,335)"/>
<path d="M0 0 C0.33 0 0.66 0 1 0 C1.33 1.98 1.66 3.96 2 6 C5.3 6.66 8.6 7.32 12 8 C12 8.33 12 8.66 12 9 C8.04 9 4.08 9 0 9 C0 6.03 0 3.06 0 0 Z " fill="#F6DEDD" transform="translate(294,248)"/>
<path d="M0 0 C0.99 0 1.98 0 3 0 C3 3.63 3 7.26 3 11 C2.01 10.67 1.02 10.34 0 10 C0 6.7 0 3.4 0 0 Z " fill="#E42422" transform="translate(577,896)"/>
<path d="M0 0 C0.66 0.33 1.32 0.66 2 1 C0.95902388 4.86648272 -0.03698408 8.49461443 -2 12 C-3.15957207 8.52128379 -2.77456651 7.65780355 -1.5625 4.3125 C-1.13130859 3.10013672 -1.13130859 3.10013672 -0.69140625 1.86328125 C-0.46324219 1.24839844 -0.23507812 0.63351562 0 0 Z " fill="#E7E7E7" transform="translate(930,801)"/>
<path d="M0 0 C4.2742558 1.5830577 6.26531794 4.50568404 9 8 C6 8 6 8 4.39453125 6.7578125 C3.87246094 6.21898437 3.35039063 5.68015625 2.8125 5.125 C2.28269531 4.59132812 1.75289062 4.05765625 1.20703125 3.5078125 C0 2 0 2 0 0 Z " fill="#444444" transform="translate(882,135)"/>
<path d="M0 0 C0.33 0 0.66 0 1 0 C1 1.65 1 3.3 1 5 C1.495 4.835 1.99 4.67 2.5 4.5 C6.03444089 3.79311182 9.39690701 3.93994845 13 4 C13 4.33 13 4.66 13 5 C8.38 5.66 3.76 6.32 -1 7 C-0.67 4.69 -0.34 2.38 0 0 Z " fill="#E30C0B" transform="translate(210,754)"/>
<path d="M0 0 C3.3 0 6.6 0 10 0 C6 2 6 2 2 2 C2 3.98 2 5.96 2 8 C1.67 8 1.34 8 1 8 C0.67 5.36 0.34 2.72 0 0 Z " fill="#EA0E0B" transform="translate(725,669)"/>
<path d="M0 0 C5.95703125 -0.29296875 5.95703125 -0.29296875 8 0 C8.99 0.99 9.98 1.98 11 3 C7.37 3 3.74 3 0 3 C0 2.01 0 1.02 0 0 Z " fill="#E62724" transform="translate(238,718)"/>
<path d="M0 0 C0.99 0.33 1.98 0.66 3 1 C3.94921875 3.06640625 3.94921875 3.06640625 4.6875 5.5625 C4.93886719 6.38878906 5.19023438 7.21507812 5.44921875 8.06640625 C5.63097656 8.70449219 5.81273437 9.34257812 6 10 C5.34 10 4.68 10 4 10 C3.32845067 8.71086513 2.66291141 7.41859796 2 6.125 C1.62875 5.40570313 1.2575 4.68640625 0.875 3.9453125 C0 2 0 2 0 0 Z " fill="#414141" transform="translate(915,180)"/>
<path d="M0 0 C0.33 0 0.66 0 1 0 C1.05399736 1.45792884 1.09279177 2.91642712 1.125 4.375 C1.14820313 5.18710937 1.17140625 5.99921875 1.1953125 6.8359375 C1 9 1 9 -1 11 C-2.23076923 4.6 -2.23076923 4.6 -1.0625 1.5625 C-0.711875 1.046875 -0.36125 0.53125 0 0 Z " fill="#EA2724" transform="translate(732,297)"/>
<path d="M0 0 C1.98 0 3.96 0 6 0 C6 0.99 6 1.98 6 3 C4.02 3 2.04 3 0 3 C0 2.01 0 1.02 0 0 Z " fill="#E92B28" transform="translate(317,255)"/>
<path d="M0 0 C3 3 3 3 3.1875 5.6875 C3.0946875 6.8321875 3.0946875 6.8321875 3 8 C2.01 8.33 1.02 8.66 0 9 C0 6.03 0 3.06 0 0 Z " fill="#E62724" transform="translate(293,770)"/>
</svg>
